<?xml version="1.0" encoding="UTF-8" standalone="no"?>
<!-- Created with Inkscape (http://www.inkscape.org/) -->

<svg
   xmlns:dc="http://purl.org/dc/elements/1.1/"
   xmlns:cc="http://creativecommons.org/ns#"
   xmlns:rdf="http://www.w3.org/1999/02/22-rdf-syntax-ns#"
   xmlns:svg="http://www.w3.org/2000/svg"
   xmlns="http://www.w3.org/2000/svg"
   xmlns:sodipodi="http://sodipodi.sourceforge.net/DTD/sodipodi-0.dtd"
   xmlns:inkscape="http://www.inkscape.org/namespaces/inkscape"
   width="515"
   height="195"
   viewBox="0 0 136.26042 51.593751"
   version="1.1"
   id="svg8"
   inkscape:version="0.92.4 (5da689c313, 2019-01-14)"
   sodipodi:docname="logo.svg">
  <defs
     id="defs2" />
  <sodipodi:namedview
     id="base"
     pagecolor="#ffffff"
     bordercolor="#666666"
     borderopacity="1.0"
     inkscape:pageopacity="0.0"
     inkscape:pageshadow="2"
     inkscape:zoom="0.7"
     inkscape:cx="193.40782"
     inkscape:cy="267.31167"
     inkscape:document-units="mm"
     inkscape:current-layer="g849"
     showgrid="false"
     units="px"
     inkscape:window-width="1680"
     inkscape:window-height="987"
     inkscape:window-x="1592"
     inkscape:window-y="-8"
     inkscape:window-maximized="1" />
  <metadata
     id="metadata5">
    <rdf:RDF>
      <cc:Work
         rdf:about="">
        <dc:format>image/svg+xml</dc:format>
        <dc:type
           rdf:resource="http://purl.org/dc/dcmitype/StillImage" />
        <dc:title></dc:title>
      </cc:Work>
    </rdf:RDF>
  </metadata>
  <g
     inkscape:label="Layer 1"
     inkscape:groupmode="layer"
     id="layer1"
     transform="translate(0,-245.40623)">
    <g
       id="g849"
       transform="translate(-24.098173,-1.1487814)">
      <g
         transform="translate(0.80180858)"
         id="g840">
        <path
           style="fill:#800000;stroke:#800000;stroke-width:0.26458332px;stroke-linecap:butt;stroke-linejoin:miter;stroke-opacity:1"
           d="m 24.190476,288.25928 1.086681,-1.41741 c 0,0 2.740329,-0.61421 2.929315,-0.61421 0.188989,0 1.795388,-0.28348 1.795388,-0.28348 l 1.6064,-1.13393 1.133927,-0.66146 c 0,0 1.748139,-0.61421 1.984375,-0.61421 0.236236,0 2.114301,-0.45362 3.354538,0 1.24024,0.45362 1.24024,0.45362 1.24024,0.45362 l 6.272038,5.21602 3.77599,3.18217 c 0,0 -6.232837,0.5976 -6.46907,0.5976 -0.236236,0 -7.984747,-0.23624 -8.457218,-0.18899 -0.47247,0.0472 -2.88207,-1.13393 -2.88207,-1.13393 l -2.36235,-1.41741 -3.590773,-0.61421 z"
           id="path836"
           inkscape:connector-curvature="0" />
        <path
           style="fill:#000000;stroke-width:0.19439603"
           d="m 24.02771,289.39464 c -0.37453,-0.64522 -0.41776,-1.60263 -0.10076,-2.2319 0.55221,-1.09627 1.31539,-1.43093 3.44677,-1.51143 2.0883,-0.0789 2.80626,-0.35309 3.98077,-1.5204 1.35555,-1.34721 1.88726,-1.40459 12.87358,-1.38857 l 38.690412,0.0148 0.15513,-0.81027 c 0.27249,-1.4233 1.68664,-2.32721 3.16057,-2.02019 0.87306,0.18185 1.7957,1.17889 1.93187,2.08773 l 0.11086,0.73981 57.392528,0.0135 c 5.94621,0.009 9.2698,0.11563 9.8895,0.31728 1.29053,0.41995 2.87648,1.98712 3.26559,3.227 0.68318,2.17659 0.24725,4.08484 -1.28606,5.62966 -1.61218,1.62424 -1.86139,1.65934 -11.86309,1.66965 l -57.399128,0.009 -0.10653,0.71088 c -0.13054,0.87143 -1.12496,1.9438 -1.96458,2.1187 -1.29548,0.26984 -2.70031,-0.50863 -3.06532,-1.69864 -0.0958,-0.31246 -0.16946,-2.86048 -0.1636,-5.66229 l 0.0105,-5.09418 -35.066812,-0.002 c -3.59129,-10e-4 -6.57649,0.0448 -6.63378,0.10204 -0.0572,0.0572 1.738,1.94633 3.98953,4.19787 l 4.09371,4.0937 1.65001,-0.009 c 1.10425,-0.006 30.265202,0.0948 30.422952,0.30498 0,0.0712 -0.09834,0.93951 -0.09194,0.5524 0,0 -29.405939,0.38791 -38.095145,0.37738 -10.27795,-0.0125 -10.55557,-0.0472 -12.03904,-1.50916 -1.08996,-1.07327 -2.05454,-1.41731 -4.17945,-1.48817 -1.72665,-0.0576 -2.52161,-0.37989 -3.00929,-1.22013 z m 3.23183,-0.0168 c 2.15746,0.0831 3.05981,0.41019 4.54975,1.64921 0.82748,0.68813 1.47835,1.08429 1.96532,1.19622 0.40045,0.0921 3.69959,0.16401 7.33141,0.15992 l 6.60332,-0.007 -4.194,-4.19399 -4.194,-4.194 -2.66278,0.0177 c -1.46454,0.01 -2.89518,0.0928 -3.17921,0.18464 -0.28403,0.0918 -1.06476,0.6237 -1.73494,1.18192 -1.47538,1.22889 -2.13241,1.46117 -4.27911,1.51275 -1.35095,0.0325 -1.74014,0.12521 -2.12019,0.50527 -1.07831,1.07831 -0.2839,1.90318 1.91441,1.98788 z m 58.267612,5.83046 c 1.40127,0 1.44576,-0.21719 1.44335,-7.04595 -0.003,-5.91904 -0.0307,-6.29852 -0.50302,-6.6864 -0.62019,-0.50924 -1.6617,-0.41664 -2.01687,0.17935 -0.37063,0.62192 -0.28459,12.86665 0.093,13.24431 0.16978,0.16977 0.61234,0.30868 0.98347,0.30869 z m 60.245318,-2.84297 c 9.81712,-0.024 9.75321,-0.0148 11.13428,-1.61121 0.56984,-0.65871 0.79375,-1.10737 0.92341,-1.85034 0.34212,-1.96038 -0.91799,-4.09188 -2.76328,-4.67416 -0.44734,-0.14116 -4.74835,-0.25087 -9.61443,-0.24526 l -57.241398,0.0101 -0.004,4.12124 c -0.001,2.26668 0.0304,4.15505 0.0718,4.19639 0.0413,0.0413 52.553278,0.0653 57.493148,0.0532 z"
           id="path834"
           inkscape:connector-curvature="0"
           sodipodi:nodetypes="ccccsccccccccccccccccccccccscccccccccccccccccccscccccscccccccccc" />
      </g>
      <g
         aria-label="PROBE"
         transform="matrix(1.0442742,0,0,1.0442742,-143.95273,171.29827)"
         style="font-style:normal;font-weight:normal;font-size:40px;line-height:1.25;font-family:sans-serif;letter-spacing:0px;word-spacing:0px;fill:#000000;fill-opacity:1;stroke:none"
         id="flowRoot826">
        <path
           d="m 183.41211,83.1729 q 0,4.785156 -2.83203,7.402344 -2.8125,2.597656 -8.00781,2.597656 h -2.16797 v 9.47266 h -7.71485 V 74.090869 h 9.88282 q 5.41015,0 8.125,2.363281 2.71484,2.363281 2.71484,6.71875 z m -13.00781,3.710938 h 1.40625 q 1.73828,0 2.7539,-0.976563 1.03516,-0.976562 1.03516,-2.695312 0,-2.890625 -3.20313,-2.890625 h -1.99218 z"
           style="font-style:normal;font-variant:normal;font-weight:800;font-stretch:normal;font-family:'Open Sans';-inkscape-font-specification:'Open Sans Ultra-Bold'"
           id="path853" />
        <path
           d="m 195.7168,92.254931 v 10.390629 h -7.71485 V 74.090869 h 9.35547 q 11.64063,0 11.64063,8.4375 0,4.960937 -4.84375,7.675781 l 8.32031,12.44141 h -8.75 l -6.05469,-10.390629 z m 0,-5.800781 h 1.44531 q 4.04297,0 4.04297,-3.574219 0,-2.949218 -3.96485,-2.949218 h -1.52343 z"
           style="font-style:normal;font-variant:normal;font-weight:800;font-stretch:normal;font-family:'Open Sans';-inkscape-font-specification:'Open Sans Ultra-Bold'"
           id="path855" />
        <path
           d="m 241.83008,88.32915 q 0,7.207031 -3.53516,10.957031 -3.53515,3.749999 -10.35156,3.749999 -6.71875,0 -10.3125,-3.76953 -3.57422,-3.769531 -3.57422,-10.976562 0,-7.128907 3.55469,-10.878907 3.57422,-3.769531 10.37109,-3.769531 6.81641,0 10.33203,3.730469 3.51563,3.730469 3.51563,10.957031 z m -19.64844,0 q 0,8.28125 5.76172,8.28125 2.92969,0 4.33594,-2.011719 1.42578,-2.011718 1.42578,-6.269531 0,-4.277344 -1.44531,-6.308594 -1.42579,-2.050781 -4.27735,-2.050781 -5.80078,0 -5.80078,8.359375 z"
           style="font-style:normal;font-variant:normal;font-weight:800;font-stretch:normal;font-family:'Open Sans';-inkscape-font-specification:'Open Sans Ultra-Bold'"
           id="path857" />
        <path
           d="m 246.98633,74.090869 h 9.96094 q 5.82031,0 8.63281,1.738281 2.83203,1.71875 2.83203,5.371094 0,2.402344 -1.23047,4.101562 -1.23047,1.699219 -3.24219,2.1875 v 0.195313 q 2.65625,0.703125 3.84766,2.34375 1.19141,1.640625 1.19141,4.257812 0,3.886719 -2.92969,6.132809 -2.91016,2.22657 -7.94922,2.22657 h -11.11328 z m 7.71484,10.957031 h 2.32422 q 1.66016,0 2.55859,-0.683594 0.91797,-0.683593 0.91797,-2.03125 0,-2.402343 -3.63281,-2.402343 h -2.16797 z m 0,5.644531 v 5.996094 h 2.71485 q 3.61328,0 3.61328,-3.046875 0,-1.425781 -0.97657,-2.1875 -0.95703,-0.761719 -2.79296,-0.761719 z"
           style="font-style:normal;font-variant:normal;font-weight:800;font-stretch:normal;font-family:'Open Sans';-inkscape-font-specification:'Open Sans Ultra-Bold'"
           id="path859" />
        <path
           d="M 290.89258,102.64556 H 273.93945 V 74.090869 h 16.95313 v 6.191406 h -9.23828 v 4.492188 h 8.55468 v 6.191406 h -8.55468 v 5.390625 h 9.23828 z"
           style="font-style:normal;font-variant:normal;font-weight:800;font-stretch:normal;font-family:'Open Sans';-inkscape-font-specification:'Open Sans Ultra-Bold'"
           id="path861" />
      </g>
    </g>
  </g>
</svg>
